<svg version="1.1" id="Layer_1" xmlns="http://www.w3.org/2000/svg" xmlns:xlink="http://www.w3.org/1999/xlink" x="0px" y="0px"
	 width="100%" viewBox="0 0 397 108" enable-background="new 0 0 397 108" xml:space="preserve">
<path fill="#1E1E2F" opacity="1.000000" stroke="none" 
	d="
M295.000000,109.000000 
	C196.666672,109.000000 98.833359,109.000000 1.000026,109.000000 
	C1.000018,73.000015 1.000018,37.000031 1.000009,1.000036 
	C133.333298,1.000024 265.666595,1.000024 397.999939,1.000012 
	C397.999939,36.999966 397.999939,72.999931 397.999969,108.999947 
	C363.833344,109.000000 329.666656,109.000000 295.000000,109.000000 
M230.951767,34.866528 
	C283.637238,34.866528 336.322693,34.866528 389.008179,34.866528 
	C389.019012,34.320229 389.029877,33.773926 389.040741,33.227627 
	C387.653290,33.124126 386.265869,32.930561 384.878387,32.930138 
	C334.265503,32.914623 283.652588,32.909222 233.039734,32.961327 
	C231.747162,32.962658 230.455276,33.622608 229.125427,34.500961 
	C229.424606,34.587109 229.723801,34.673252 230.951767,34.866528 
M186.062531,61.145824 
	C183.765717,61.145824 181.468903,61.145824 178.794830,61.145824 
	C177.354660,73.959175 175.957672,86.388275 174.556946,98.850700 
	C177.386215,98.850700 179.468689,98.850700 181.670212,98.850700 
	C182.689056,90.300484 183.673752,82.036781 184.658447,73.773087 
	C185.007751,73.782661 185.357040,73.792236 185.706329,73.801811 
	C188.151154,82.201912 190.595978,90.602005 192.996826,98.850967 
	C201.167831,99.533989 201.163925,99.532867 203.180984,92.513252 
	C203.593018,91.079338 204.052643,89.659164 204.479309,88.229370 
	C205.898727,83.472748 207.313156,78.714630 208.729507,73.957085 
	C209.086105,74.033295 209.442703,74.109505 209.799301,74.185715 
	C210.751343,82.372032 211.703384,90.558350 212.662766,98.807922 
	C215.202026,98.807922 217.417664,98.807922 219.897461,98.807922 
	C218.431442,86.120285 217.009552,73.814629 215.569717,61.353775 
	C212.182907,61.353775 209.239929,61.353775 205.940506,61.353775 
	C203.176727,70.837013 200.407608,80.338570 197.349365,90.832184 
	C196.422058,88.299782 195.716125,86.678200 195.231033,84.993042 
	C193.349091,78.455322 191.629837,71.868958 189.631424,65.367889 
	C189.159576,63.832878 187.836441,62.559551 186.062531,61.145824 
M38.948227,67.613235 
	C38.948227,78.044884 38.948227,88.476532 38.948227,98.843689 
	C41.604939,98.843689 43.669884,98.843689 46.144016,98.843689 
	C46.144016,93.961212 46.144016,89.383148 46.144016,85.277756 
	C50.226597,84.762146 53.936607,84.701286 57.408783,83.761612 
	C62.919998,82.270111 65.439072,77.746132 65.006203,71.332474 
	C64.642708,65.946587 61.695435,62.243435 56.064663,61.675995 
	C50.531704,61.118412 44.898613,61.554432 38.948238,61.554432 
	C38.948238,63.371586 38.948238,65.009399 38.948227,67.613235 
M319.800598,71.153419 
	C310.939087,73.056870 307.396088,77.434990 307.471985,86.388016 
	C307.533417,93.635246 310.521423,97.863808 316.789062,99.220741 
	C322.028320,100.355034 327.138977,99.868767 332.318420,97.836761 
	C331.558838,95.965935 331.017151,94.631821 330.500000,93.358063 
	C318.387878,95.888123 315.802094,94.982788 315.122894,87.607368 
	C321.378784,87.607368 327.599854,87.607368 333.750244,87.607368 
	C334.803375,76.254913 331.029907,71.700165 319.800598,71.153419 
M241.666718,71.516602 
	C236.750198,71.787544 231.833679,72.058479 226.366379,72.359772 
	C227.424362,75.210457 227.922119,76.551628 228.404312,77.850876 
	C239.540314,75.166573 240.721649,75.581238 240.271927,82.168663 
	C234.191849,83.410362 226.095200,81.840416 224.349869,90.594421 
	C223.880249,92.949966 225.301682,96.957268 227.192642,98.250519 
	C231.485046,101.186150 236.333160,100.184334 240.571594,96.994041 
	C240.543945,97.516960 240.516296,98.039879 240.488647,98.562798 
	C242.912399,98.719604 245.336151,98.876404 247.554977,99.019951 
	C247.554977,91.566254 247.528885,85.103775 247.565216,78.641640 
	C247.585510,75.031158 246.149399,72.569588 241.666718,71.516602 
M161.841248,97.741638 
	C163.984131,98.292183 166.127014,98.842720 168.194839,99.373978 
	C168.194839,92.955551 168.195358,87.683861 168.194733,82.412178 
	C168.193558,72.700432 165.252167,70.054840 155.524857,71.240135 
	C152.940659,71.555031 150.407059,72.285057 147.421478,72.914932 
	C148.053375,74.897972 148.522415,76.369934 148.980713,77.808212 
	C160.597244,75.149010 161.858398,75.659554 160.526337,81.990494 
	C156.888306,82.739838 153.186966,83.066315 149.821640,84.305351 
	C145.582977,85.865929 143.851913,90.068947 144.964859,94.579536 
	C146.001495,98.780945 149.354752,99.960533 152.989166,99.630547 
	C155.840240,99.371681 158.592484,98.024208 161.841248,97.741638 
M286.300659,77.941895 
	C286.343964,81.929657 286.346344,85.918381 286.439087,89.904991 
	C286.639648,98.527069 288.860809,100.528168 297.371918,99.709778 
	C298.982910,99.554871 300.565155,99.101051 302.608704,98.696442 
	C302.060181,96.901817 301.609863,95.428505 301.256683,94.273041 
	C298.185852,93.651695 294.142242,96.461494 293.931152,91.135315 
	C293.749268,86.546394 293.893402,81.944550 293.893402,76.984161 
	C297.202057,76.984161 299.964630,76.984161 303.056183,76.984161 
	C302.951782,75.048607 302.869019,73.514206 302.775848,71.786880 
	C299.720886,71.786880 297.075073,71.786880 294.275909,71.786880 
	C294.007996,69.681641 293.765015,67.772491 293.524261,65.880768 
	C291.053070,65.880768 288.858307,65.880768 287.640289,65.880768 
	C286.402954,68.331657 285.603851,70.086388 284.646057,71.749741 
	C284.032227,72.815712 283.184265,73.746895 282.441284,74.738495 
	C283.549469,75.568832 284.657684,76.399170 286.300659,77.941895 
M95.357483,77.013947 
	C97.098114,77.013947 98.838737,77.013947 100.751244,77.013947 
	C97.167747,84.992645 89.486824,89.983795 87.917755,98.914612 
	C95.856995,98.914612 102.944443,98.914612 110.104462,98.914612 
	C110.104462,97.144012 110.104462,95.641243 110.104462,93.680435 
	C105.829956,93.680435 101.966927,93.680435 97.996971,93.680435 
	C101.667503,85.980537 108.942635,80.891068 110.980698,71.670624 
	C103.219086,71.670624 96.317787,71.670624 88.951920,71.670624 
	C88.683922,72.650642 88.276108,74.141930 87.710732,76.209427 
	C90.306984,76.517479 92.398834,76.765686 95.357483,77.013947 
M257.764618,73.207077 
	C253.083984,78.286148 254.209412,84.017868 260.536682,86.602516 
	C262.662994,87.471085 265.107605,87.579391 267.201019,88.501953 
	C268.342957,89.005196 269.945770,90.700409 269.758759,91.477142 
	C269.448364,92.766373 267.976593,94.522331 266.790131,94.697075 
	C264.408386,95.047867 261.821198,94.753677 259.443542,94.194870 
	C256.381592,93.475258 255.096329,94.494987 254.943283,97.740723 
	C260.463226,100.248459 266.282471,100.746735 271.766632,98.539406 
	C274.020935,97.632088 276.080872,94.523018 276.825134,92.001122 
	C277.844818,88.545860 275.928101,85.530327 272.510559,83.946426 
	C270.867462,83.184914 268.962585,82.942673 267.398468,82.067917 
	C265.488953,80.999969 263.812836,79.514603 262.035797,78.209747 
	C264.225067,77.492149 266.404846,76.742699 268.611694,76.083946 
	C269.051056,75.952789 269.637543,76.061249 270.082153,76.241669 
	C273.249023,77.526672 274.575500,76.184875 274.914551,72.868462 
	C269.331390,70.756744 263.919647,70.307121 257.764618,73.207077 
M119.336143,91.999542 
	C118.370911,94.109436 117.405678,96.219322 116.177696,98.903557 
	C124.551682,98.903557 131.797836,98.903557 139.274704,98.903557 
	C139.274704,97.244949 139.274704,95.837685 139.274704,93.846527 
	C135.038330,93.846527 131.016617,93.846527 126.780907,93.846527 
	C130.325577,85.903687 137.930557,80.964302 139.545013,71.653137 
	C131.904831,71.653137 124.998299,71.653137 117.752335,71.653137 
	C117.441933,72.706345 117.030800,74.101326 116.363930,76.364052 
	C120.943741,76.705330 125.111069,77.015869 129.780746,77.363838 
	C126.296204,82.286285 123.060539,86.857162 119.336143,91.999542 
M135.500015,34.891392 
	C93.729927,35.025002 51.959835,35.158459 10.189804,35.308117 
	C10.134233,35.308315 10.050735,35.546207 10.031820,35.680340 
	C10.008989,35.842232 10.041270,36.011898 10.052574,36.181946 
	C63.284801,36.181946 116.517029,36.181946 169.749252,36.181946 
	C169.751068,35.751759 169.752884,35.321575 169.754700,34.891388 
	C158.669800,34.891388 147.584915,34.891388 135.500015,34.891392 
M341.419434,82.534332 
	C341.419434,87.965576 341.419434,93.396828 341.419434,98.844231 
	C344.249878,98.844231 346.479309,98.844231 348.885834,98.844231 
	C348.885834,94.677811 348.884583,90.853241 348.886078,87.028679 
	C348.889374,78.676620 350.612854,77.019539 359.174408,77.623764 
	C359.476990,75.655586 359.785370,73.649643 360.370911,69.841087 
	C355.617371,71.791733 352.163055,73.209236 348.517578,74.705185 
	C348.257751,73.952545 347.809906,72.655289 347.306671,71.197586 
	C345.134979,71.652069 343.223755,72.052048 341.001617,72.517082 
	C341.146545,75.652939 341.282928,78.604034 341.419434,82.534332 
M200.460175,41.045258 
	C202.625443,41.044979 204.825668,41.281551 206.944855,40.968933 
	C208.618362,40.722061 211.368454,40.096577 211.612854,39.127731 
	C212.873108,34.132359 213.479630,28.972059 214.508011,22.684853 
	C210.531021,24.671185 207.930008,25.970285 205.121811,27.372856 
	C203.322876,23.847101 201.650055,20.568504 199.435791,16.228745 
	C197.233765,20.644388 195.576553,23.967539 193.855743,27.418211 
	C190.929596,25.936308 188.327133,24.618334 185.396027,23.133919 
	C185.176392,24.377359 184.940948,25.008129 184.982391,25.620153 
	C185.071960,26.943445 185.243927,28.268188 185.486252,29.573015 
	C187.625641,41.093407 187.632401,41.092152 200.460175,41.045258 
M77.420601,71.840874 
	C75.995407,71.921516 74.570213,72.002151 73.155266,72.082214 
	C73.155266,81.273605 73.155266,90.105789 73.155266,98.836090 
	C75.582695,98.836090 77.643532,98.836090 79.993996,98.836090 
	C79.993996,90.457268 80.040077,82.373726 79.923569,74.292526 
	C79.911766,73.473656 78.920036,72.668915 77.420601,71.840874 
M73.620338,66.052551 
	C75.449501,66.132393 78.056061,66.977158 78.915932,66.103256 
	C80.054359,64.946251 80.736031,61.783707 79.945389,60.696182 
	C79.047195,59.460728 75.994576,58.705246 74.436127,59.272663 
	C71.594200,60.307388 71.503174,62.952175 73.620338,66.052551 
z"/>
<path fill="#DEDEDF" opacity="1.000000" stroke="none" 
	d="
M186.483734,61.155834 
	C187.836441,62.559551 189.159576,63.832878 189.631424,65.367889 
	C191.629837,71.868958 193.349091,78.455322 195.231033,84.993042 
	C195.716125,86.678200 196.422058,88.299782 197.349365,90.832184 
	C200.407608,80.338570 203.176727,70.837013 205.940506,61.353775 
	C209.239929,61.353775 212.182907,61.353775 215.569717,61.353775 
	C217.009552,73.814629 218.431442,86.120285 219.897461,98.807922 
	C217.417664,98.807922 215.202026,98.807922 212.662766,98.807922 
	C211.703384,90.558350 210.751343,82.372032 209.799301,74.185715 
	C209.442703,74.109505 209.086105,74.033295 208.729507,73.957085 
	C207.313156,78.714630 205.898727,83.472748 204.479309,88.229370 
	C204.052643,89.659164 203.593018,91.079338 203.180984,92.513252 
	C201.163925,99.532867 201.167831,99.533989 192.996826,98.850967 
	C190.595978,90.602005 188.151154,82.201912 185.706329,73.801811 
	C185.357040,73.792236 185.007751,73.782661 184.658447,73.773087 
	C183.673752,82.036781 182.689056,90.300484 181.670212,98.850700 
	C179.468689,98.850700 177.386215,98.850700 174.556946,98.850700 
	C175.957672,86.388275 177.354660,73.959175 178.794830,61.145824 
	C181.468903,61.145824 183.765717,61.145824 186.483734,61.155834 
z"/>
<path fill="#E2E2E2" opacity="1.000000" stroke="none" 
	d="
M38.948235,67.130226 
	C38.948238,65.009399 38.948238,63.371586 38.948238,61.554432 
	C44.898613,61.554432 50.531704,61.118412 56.064663,61.675995 
	C61.695435,62.243435 64.642708,65.946587 65.006203,71.332474 
	C65.439072,77.746132 62.919998,82.270111 57.408783,83.761612 
	C53.936607,84.701286 50.226597,84.762146 46.144016,85.277756 
	C46.144016,89.383148 46.144016,93.961212 46.144016,98.843689 
	C43.669884,98.843689 41.604939,98.843689 38.948227,98.843689 
	C38.948227,88.476532 38.948227,78.044884 38.948235,67.130226 
M46.033089,67.998970 
	C46.033089,71.774155 46.033089,75.549347 46.033089,79.202209 
	C52.895023,80.393806 56.669945,79.102921 57.181847,75.124107 
	C57.474052,72.852943 57.115067,68.913368 55.865719,68.350067 
	C53.045433,67.078468 49.489819,67.437767 46.033089,67.998970 
z"/>
<path fill="#DBDBDC" opacity="1.000000" stroke="none" 
	d="
M320.217041,71.144287 
	C331.029907,71.700165 334.803375,76.254913 333.750244,87.607368 
	C327.599854,87.607368 321.378784,87.607368 315.122894,87.607368 
	C315.802094,94.982788 318.387878,95.888123 330.500000,93.358063 
	C331.017151,94.631821 331.558838,95.965935 332.318420,97.836761 
	C327.138977,99.868767 322.028320,100.355034 316.789062,99.220741 
	C310.521423,97.863808 307.533417,93.635246 307.471985,86.388016 
	C307.396088,77.434990 310.939087,73.056870 320.217041,71.144287 
M319.163239,76.608467 
	C317.566681,78.290474 315.970093,79.972481 314.373505,81.654480 
	C314.708466,81.995430 315.043427,82.336372 315.378357,82.677322 
	C319.105988,82.677322 322.833618,82.677322 326.728333,82.677322 
	C326.657959,77.928215 324.342590,75.987602 319.163239,76.608467 
z"/>
<path fill="#DBDBDC" opacity="1.000000" stroke="none" 
	d="
M242.066254,71.622147 
	C246.149399,72.569588 247.585510,75.031158 247.565216,78.641640 
	C247.528885,85.103775 247.554977,91.566254 247.554977,99.019951 
	C245.336151,98.876404 242.912399,98.719604 240.488647,98.562798 
	C240.516296,98.039879 240.543945,97.516960 240.571594,96.994041 
	C236.333160,100.184334 231.485046,101.186150 227.192642,98.250519 
	C225.301682,96.957268 223.880249,92.949966 224.349869,90.594421 
	C226.095200,81.840416 234.191849,83.410362 240.271927,82.168663 
	C240.721649,75.581238 239.540314,75.166573 228.404312,77.850876 
	C227.922119,76.551628 227.424362,75.210457 226.366379,72.359772 
	C231.833679,72.058479 236.750198,71.787544 242.066254,71.622147 
M234.254044,87.264801 
	C233.192276,89.201538 232.130524,91.138268 231.068756,93.075005 
	C232.926117,93.633110 234.966522,94.974236 236.603943,94.591484 
	C240.382782,93.708130 241.751236,90.919838 240.241867,86.555885 
	C238.553635,86.715981 236.817596,86.880608 234.254044,87.264801 
z"/>
<path fill="#DEDEDF" opacity="1.000000" stroke="none" 
	d="
M161.614929,97.451004 
	C158.592484,98.024208 155.840240,99.371681 152.989166,99.630547 
	C149.354752,99.960533 146.001495,98.780945 144.964859,94.579536 
	C143.851913,90.068947 145.582977,85.865929 149.821640,84.305351 
	C153.186966,83.066315 156.888306,82.739838 160.526337,81.990494 
	C161.858398,75.659554 160.597244,75.149010 148.980713,77.808212 
	C148.522415,76.369934 148.053375,74.897972 147.421478,72.914932 
	C150.407059,72.285057 152.940659,71.555031 155.524857,71.240135 
	C165.252167,70.054840 168.193558,72.700432 168.194733,82.412178 
	C168.195358,87.683861 168.194839,92.955551 168.194839,99.373978 
	C166.127014,98.842720 163.984131,98.292183 161.614929,97.451004 
M155.543030,95.003952 
	C160.604523,94.386444 162.159821,91.589920 160.574081,86.246468 
	C158.324402,86.756454 155.992538,86.897865 154.071259,87.859581 
	C152.833542,88.479134 151.355423,90.423714 151.517288,91.555267 
	C151.700027,92.832825 153.600189,93.864716 155.543030,95.003952 
z"/>
<path fill="#D9D9DA" opacity="1.000000" stroke="none" 
	d="
M286.033264,77.585693 
	C284.657684,76.399170 283.549469,75.568832 282.441284,74.738495 
	C283.184265,73.746895 284.032227,72.815712 284.646057,71.749741 
	C285.603851,70.086388 286.402954,68.331657 287.640289,65.880768 
	C288.858307,65.880768 291.053070,65.880768 293.524261,65.880768 
	C293.765015,67.772491 294.007996,69.681641 294.275909,71.786880 
	C297.075073,71.786880 299.720886,71.786880 302.775848,71.786880 
	C302.869019,73.514206 302.951782,75.048607 303.056183,76.984161 
	C299.964630,76.984161 297.202057,76.984161 293.893402,76.984161 
	C293.893402,81.944550 293.749268,86.546394 293.931152,91.135315 
	C294.142242,96.461494 298.185852,93.651695 301.256683,94.273041 
	C301.609863,95.428505 302.060181,96.901817 302.608704,98.696442 
	C300.565155,99.101051 298.982910,99.554871 297.371918,99.709778 
	C288.860809,100.528168 286.639648,98.527069 286.439087,89.904991 
	C286.346344,85.918381 286.343964,81.929657 286.033264,77.585693 
z"/>
<path fill="#E0E0E1" opacity="1.000000" stroke="none" 
	d="
M94.924088,77.013916 
	C92.398834,76.765686 90.306984,76.517479 87.710732,76.209427 
	C88.276108,74.141930 88.683922,72.650642 88.951920,71.670624 
	C96.317787,71.670624 103.219086,71.670624 110.980698,71.670624 
	C108.942635,80.891068 101.667503,85.980537 97.996971,93.680435 
	C101.966927,93.680435 105.829956,93.680435 110.104462,93.680435 
	C110.104462,95.641243 110.104462,97.144012 110.104462,98.914612 
	C102.944443,98.914612 95.856995,98.914612 87.917755,98.914612 
	C89.486824,89.983795 97.167747,84.992645 100.751244,77.013947 
	C98.838737,77.013947 97.098114,77.013947 94.924088,77.013916 
z"/>
<path fill="#DDDDDE" opacity="1.000000" stroke="none" 
	d="
M258.113220,73.014648 
	C263.919647,70.307121 269.331390,70.756744 274.914551,72.868462 
	C274.575500,76.184875 273.249023,77.526672 270.082153,76.241669 
	C269.637543,76.061249 269.051056,75.952789 268.611694,76.083946 
	C266.404846,76.742699 264.225067,77.492149 262.035797,78.209747 
	C263.812836,79.514603 265.488953,80.999969 267.398468,82.067917 
	C268.962585,82.942673 270.867462,83.184914 272.510559,83.946426 
	C275.928101,85.530327 277.844818,88.545860 276.825134,92.001122 
	C276.080872,94.523018 274.020935,97.632088 271.766632,98.539406 
	C266.282471,100.746735 260.463226,100.248459 254.943283,97.740723 
	C255.096329,94.494987 256.381592,93.475258 259.443542,94.194870 
	C261.821198,94.753677 264.408386,95.047867 266.790131,94.697075 
	C267.976593,94.522331 269.448364,92.766373 269.758759,91.477142 
	C269.945770,90.700409 268.342957,89.005196 267.201019,88.501953 
	C265.107605,87.579391 262.662994,87.471085 260.536682,86.602516 
	C254.209412,84.017868 253.083984,78.286148 258.113220,73.014648 
z"/>
<path fill="#E1E1E2" opacity="1.000000" stroke="none" 
	d="
M119.580505,91.713791 
	C123.060539,86.857162 126.296204,82.286285 129.780746,77.363838 
	C125.111069,77.015869 120.943741,76.705330 116.363930,76.364052 
	C117.030800,74.101326 117.441933,72.706345 117.752335,71.653137 
	C124.998299,71.653137 131.904831,71.653137 139.545013,71.653137 
	C137.930557,80.964302 130.325577,85.903687 126.780907,93.846527 
	C131.016617,93.846527 135.038330,93.846527 139.274704,93.846527 
	C139.274704,95.837685 139.274704,97.244949 139.274704,98.903557 
	C131.797836,98.903557 124.551682,98.903557 116.177696,98.903557 
	C117.405678,96.219322 118.370911,94.109436 119.580505,91.713791 
z"/>
<path fill="#FFD700" opacity="1.000000" stroke="none" 
	d="
M136.000031,34.891388 
	C147.584915,34.891388 158.669800,34.891388 169.754700,34.891388 
	C169.752884,35.321575 169.751068,35.751759 169.749252,36.181946 
	C116.517029,36.181946 63.284801,36.181946 10.051136,36.180073 
	C10.041270,36.011898 10.008989,35.842232 10.031820,35.680340 
	C10.050735,35.546207 10.134233,35.308315 10.189804,35.308117 
	C51.959835,35.158459 93.729927,35.025002 136.000031,34.891388 
z"/>
<path fill="#FFD700" opacity="1.000000" stroke="none" 
	d="
M229.163071,33.975403 
	C230.455276,33.622608 231.747162,32.962658 233.039734,32.961327 
	C283.652588,32.909222 334.265503,32.914623 384.878387,32.930138 
	C386.265869,32.930561 387.653290,33.124126 389.040741,33.227627 
	C389.029877,33.773926 389.019012,34.320229 389.008179,34.866528 
	C336.322693,34.866528 283.637238,34.866528 230.383163,34.644165 
	C229.627075,34.229694 229.409912,34.080894 229.163071,33.975403 
z"/>
<path fill="#D7D7D8" opacity="1.000000" stroke="none" 
	d="
M341.419373,82.044731 
	C341.282928,78.604034 341.146545,75.652939 341.001617,72.517082 
	C343.223755,72.052048 345.134979,71.652069 347.306671,71.197586 
	C347.809906,72.655289 348.257751,73.952545 348.517578,74.705185 
	C352.163055,73.209236 355.617371,71.791733 360.370911,69.841087 
	C359.785370,73.649643 359.476990,75.655586 359.174408,77.623764 
	C350.612854,77.019539 348.889374,78.676620 348.886078,87.028679 
	C348.884583,90.853241 348.885834,94.677811 348.885834,98.844231 
	C346.479309,98.844231 344.249878,98.844231 341.419434,98.844231 
	C341.419434,93.396828 341.419434,87.965576 341.419373,82.044731 
z"/>
<path fill="#EAC604" opacity="1.000000" stroke="none" 
	d="
M199.973389,41.045609 
	C187.632401,41.092152 187.625641,41.093407 185.486252,29.573015 
	C185.243927,28.268188 185.071960,26.943445 184.982391,25.620153 
	C184.940948,25.008129 185.176392,24.377359 185.396027,23.133919 
	C188.327133,24.618334 190.929596,25.936308 193.855743,27.418211 
	C195.576553,23.967539 197.233765,20.644388 199.435791,16.228745 
	C201.650055,20.568504 203.322876,23.847101 205.121811,27.372856 
	C207.930008,25.970285 210.531021,24.671185 214.508011,22.684853 
	C213.479630,28.972059 212.873108,34.132359 211.612854,39.127731 
	C211.368454,40.096577 208.618362,40.722061 206.944855,40.968933 
	C204.825668,41.281551 202.625443,41.044979 199.973389,41.045609 
M195.175568,30.353212 
	C192.925766,29.586466 190.675964,28.819719 187.994949,27.906006 
	C188.389023,30.691481 188.504410,33.357979 189.247223,35.836433 
	C189.539917,36.813004 191.203705,37.962341 192.293045,38.015774 
	C197.106277,38.251869 201.941620,38.220493 206.759338,38.035664 
	C207.793625,37.995987 209.455002,37.098576 209.678116,36.282169 
	C210.404251,33.625057 210.597885,30.822416 211.076111,27.526865 
	C208.436859,28.790522 206.397842,29.766788 203.981857,30.923544 
	C202.457748,27.984278 201.027054,25.225151 199.397644,22.082790 
	C198.025223,25.014198 196.902390,27.412495 195.175568,30.353212 
z"/>
<path fill="#E7E7E7" opacity="1.000000" stroke="none" 
	d="
M77.901825,71.849243 
	C78.920036,72.668915 79.911766,73.473656 79.923569,74.292526 
	C80.040077,82.373726 79.993996,90.457268 79.993996,98.836090 
	C77.643532,98.836090 75.582695,98.836090 73.155266,98.836090 
	C73.155266,90.105789 73.155266,81.273605 73.155266,72.082214 
	C74.570213,72.002151 75.995407,71.921516 77.901825,71.849243 
z"/>
<path fill="#DDDDDD" opacity="1.000000" stroke="none" 
	d="
M73.335136,65.775200 
	C71.503174,62.952175 71.594200,60.307388 74.436127,59.272663 
	C75.994576,58.705246 79.047195,59.460728 79.945389,60.696182 
	C80.736031,61.783707 80.054359,64.946251 78.915932,66.103256 
	C78.056061,66.977158 75.449501,66.132393 73.335136,65.775200 
z"/>
<path fill="#D5B408" opacity="1.000000" stroke="none" 
	d="
M229.144257,34.238182 
	C229.409912,34.080894 229.627075,34.229694 229.918762,34.590599 
	C229.723801,34.673252 229.424606,34.587109 229.144257,34.238182 
z"/>
<path fill="#282838" opacity="1.000000" stroke="none" 
	d="
M46.133221,67.566269 
	C49.489819,67.437767 53.045433,67.078468 55.865719,68.350067 
	C57.115067,68.913368 57.474052,72.852943 57.181847,75.124107 
	C56.669945,79.102921 52.895023,80.393806 46.033089,79.202209 
	C46.033089,75.549347 46.033089,71.774155 46.133221,67.566269 
z"/>
<path fill="#313140" opacity="1.000000" stroke="none" 
	d="
M319.530029,76.485886 
	C324.342590,75.987602 326.657959,77.928215 326.728333,82.677322 
	C322.833618,82.677322 319.105988,82.677322 315.378357,82.677322 
	C315.043427,82.336372 314.708466,81.995430 314.373505,81.654480 
	C315.970093,79.972481 317.566681,78.290474 319.530029,76.485886 
z"/>
<path fill="#282838" opacity="1.000000" stroke="none" 
	d="
M234.667786,87.155014 
	C236.817596,86.880608 238.553635,86.715981 240.241867,86.555885 
	C241.751236,90.919838 240.382782,93.708130 236.603943,94.591484 
	C234.966522,94.974236 232.926117,93.633110 231.068756,93.075005 
	C232.130524,91.138268 233.192276,89.201538 234.667786,87.155014 
z"/>
<path fill="#2B2B3B" opacity="1.000000" stroke="none" 
	d="
M155.148239,95.003700 
	C153.600189,93.864716 151.700027,92.832825 151.517288,91.555267 
	C151.355423,90.423714 152.833542,88.479134 154.071259,87.859581 
	C155.992538,86.897865 158.324402,86.756454 160.574081,86.246468 
	C162.159821,91.589920 160.604523,94.386444 155.148239,95.003700 
z"/>
<path fill="#23222D" opacity="1.000000" stroke="none" 
	d="
M195.477570,30.082001 
	C196.902390,27.412495 198.025223,25.014198 199.397644,22.082790 
	C201.027054,25.225151 202.457748,27.984278 203.981857,30.923544 
	C206.397842,29.766788 208.436859,28.790522 211.076111,27.526865 
	C210.597885,30.822416 210.404251,33.625057 209.678116,36.282169 
	C209.455002,37.098576 207.793625,37.995987 206.759338,38.035664 
	C201.941620,38.220493 197.106277,38.251869 192.293045,38.015774 
	C191.203705,37.962341 189.539917,36.813004 189.247223,35.836433 
	C188.504410,33.357979 188.389023,30.691481 187.994949,27.906006 
	C190.675964,28.819719 192.925766,29.586466 195.477570,30.082001 
z"/>
</svg>